<svg id="Layer_1" data-name="Layer 1" xmlns="http://www.w3.org/2000/svg" width="140" height="52.61" viewBox="0 0 140 52.61">
  <defs>
    <style>
      .cls-1 {
        fill: #fff;
      }
    </style>
  </defs>
  <g id="Laag_2" data-name="Laag 2">
    <g id="Laag_1-2" data-name="Laag 1-2">
      <g id="Laag_2-2" data-name="Laag 2-2">
        <g id="Laag_1-2-2" data-name="Laag 1-2-2">
          <g id="Laag_2-2-2" data-name="Laag 2-2-2">
            <g id="Laag_1-2-2-2" data-name="Laag 1-2-2-2">
              <path class="cls-1" d="M26.21,0A26.31,26.31,0,1,0,52.52,26.3v-.05A26.31,26.31,0,0,0,26.21,0Zm-.09,42a4,4,0,0,1-3.8-2.26L15.61,26.2l-1.5,2.33-2.29,3.63a4.57,4.57,0,0,1-5.39,1.53,3.8,3.8,0,0,1-1.77-1.23,1.82,1.82,0,0,1,0-2.1l.71-1.1,2.84-4.4,4.9-7.61a4.35,4.35,0,0,1,1.25-1.17l.31-.2h0a4.53,4.53,0,0,1,3.76-.18,3.84,3.84,0,0,1,1.81,1.23,2.38,2.38,0,0,1,.23.45l5.74,11.9L35,13.05a4.05,4.05,0,0,1,5.41-1.62h0a4.06,4.06,0,0,1,1.67,5.49L29.58,39.83a4,4,0,0,1-3.46,2Zm15.69-7.27a4.06,4.06,0,1,1,4.69-3.4h0a4.05,4.05,0,0,1-4.62,3.4h-.07Z" transform="translate(0.09)"/>
              <path class="cls-1" d="M14.62,15.9l-.31.2.35-.19Z" transform="translate(0.09)"/>
              <path class="cls-1" d="M68,17.55a.51.51,0,0,1,.51-.48h.7L79.9,27.39h0V17.84a.5.5,0,0,1,.5-.5h3.28a.52.52,0,0,1,.52.5v18.1a.53.53,0,0,1-.52.49h-.42a.85.85,0,0,1-.34-.14L72.24,25.62h0v10a.52.52,0,0,1-.51.5H68.52a.51.51,0,0,1-.51-.5Z" transform="translate(0.09)"/>
              <path class="cls-1" d="M99.74,17.07a9.69,9.69,0,1,1-9.65,9.73h0a9.66,9.66,0,0,1,9.61-9.71h0Zm0,15.06a5.38,5.38,0,1,0-5.32-5.44v.09a5.36,5.36,0,0,0,5.32,5.34Z" transform="translate(0.09)"/>
              <path class="cls-1" d="M112.78,18a.48.48,0,0,1,.19-.64h0a.47.47,0,0,1,.26,0h3.58a.51.51,0,0,1,.46.29l4.43,9.8h.16l4.42-9.8a.48.48,0,0,1,.45-.29h3.6a.47.47,0,0,1,.52.43h0a.66.66,0,0,1-.06.27l-8.47,18.08a.51.51,0,0,1-.45.3h-.28a.52.52,0,0,1-.45-.3Z" transform="translate(0.09)"/>
              <path class="cls-1" d="M135.67,17.85a.52.52,0,0,1,.51-.51h3.22a.53.53,0,0,1,.51.51v17.8a.52.52,0,0,1-.51.5h-3.22a.52.52,0,0,1-.51-.5Z" transform="translate(0.09)"/>
            </g>
          </g>
        </g>
      </g>
    </g>
  </g>
</svg>
